<?xml version="1.0" encoding="utf-8"?>
<!-- Generator: Adobe Illustrator 16.0.4, SVG Export Plug-In . SVG Version: 6.00 Build 0)  -->
<!DOCTYPE svg PUBLIC "-//W3C//DTD SVG 1.1//EN" "http://www.w3.org/Graphics/SVG/1.1/DTD/svg11.dtd">
<svg version="1.1" id="Layer_1" xmlns="http://www.w3.org/2000/svg" xmlns:xlink="http://www.w3.org/1999/xlink" x="0px" y="0px"
	 width="500px" height="511.279px" viewBox="0 0 500 511.279" enable-background="new 0 0 500 511.279" xml:space="preserve">
<g>
	<path fill-rule="evenodd" clip-rule="evenodd" fill="transparent" d="M457.949,228.1c-1.389-24.921-2.779-49.842-4.168-74.765
		c18.684,23.266,27.193,47.54,12.684,74.316C463.625,227.802,460.791,227.95,457.949,228.1z"/>
	<path fill-rule="evenodd" clip-rule="evenodd" fill="transparent" d="M33.599,153.023c0,20.082,0,40.164,0,59.379
		C18.631,196.327,17.453,178.345,33.599,153.023z"/>
	<path fill-rule="evenodd" clip-rule="evenodd" fill="transparent" d="M124.979,158.855c8.055,18.733,18.648,34.73,0,51.244
		C124.979,194.022,124.979,177.788,124.979,158.855z"/>
	<g>
		<g>
			<path fill="#7E57C2" d="M64.16,438.931c4.274-9.301,11.573-20.363,22.172-22.851c3.139-0.737,1.807-5.558-1.329-4.822
				c-11.866,2.785-20.347,14.675-25.161,25.149C58.506,439.315,62.814,441.857,64.16,438.931L64.16,438.931z"/>
		</g>
	</g>
	<path fill="#7E57C2" d="M-0.001,199.249c0-13.784,0-27.569,0-41.354c6.62-14.6,13.428-29.115,19.797-43.822
		c4.944-11.412,12.123-17.749,25.686-16.681c5.884,0.463,12.102-3.359,18.169-5.233C47.19,91.97,40.522,84.981,41.554,70.282
		c0.469-6.658,2.01-13.327,3.801-19.787c4.55-16.405,23.84-29.373,40.811-27.847c18.949,1.703,35.084,16.066,37.54,34.817
		c1.126,8.583,2.611,18.883-1.039,25.771c-2.962,5.593-13.347,7.257-20.476,10.68c9.858,6.463,20.994,11.519,29.145,19.589
		c15.25,15.097,15.607,36.283,19.039,56.021c2.104,12.107,4.752,24.12,7.156,36.174c1.816,0.061,3.634,0.124,5.453,0.186
		c4.591-14.905,8.545-30.044,13.916-44.663c9.755-26.554,9.351-59.93,45.209-69.796c1.625-0.448,2.454-3.784,5.221-8.373
		c-8.131,0.889-13.645,1.489-20.908,2.282c3.563-21.558,1.74-45.654,24.171-56.762c8.322-4.119,23.876-0.624,32.773,4.854
		c19.076,11.748,19.852,31.946,17.68,53.841c-9.01-3.307-16.4-6.019-23.787-8.729c-0.904,1.465-1.809,2.93-2.713,4.395
		c4.301,3.64,8.635,7.24,12.893,10.93c8.672,7.515,21.215,13.455,25.148,22.953c8.76,21.115,13.111,44.046,19.439,66.186
		c2.354,8.233,5.211,16.319,7.838,24.473c2.057-0.137,4.105-0.277,6.162-0.414c4.133-13.062,8.553-26.039,12.35-39.196
		c9.16-31.741,16.77-64.383,53.506-77.063c2.217-0.765,3.486-4.265,5.201-6.494c-1.746,0.835-3.494,1.671-5.242,2.506
		c-5.275-7.288-14.748-14.392-15.078-21.898c-1.277-28.975,13.576-52.036,31.977-53.505c16.594-1.323,25.887,11.243,30.285,23.198
		c10.6,28.816,6.023,42.177-14.924,51.942c7.521,3.547,13.48,6.052,19.135,9.107c6.365,3.442,13.889,6.125,18.453,11.305
		c35.467,40.252,43.738,97.231,17.496,143.582c-11.797,20.832-11.246,38.941-6.432,60.681c6.725,30.356,9.713,61.542,14.721,95.215
		c-22.953,0-41.688-0.43-60.393,0.11c-22.637,0.652-45.26,2.875-67.867,2.609c-4.473-0.055-12.959-8.615-12.641-12.706
		c3.609-46.141,5.951-92.637,14.014-138.082c6.352-35.768,15.625-70.667,7.641-108.074c-7.139,17.208-16.143,35.39-14.994,52.908
		c0.713,10.879,1.752,19.302-4.424,27.979c-8.408,11.812-17.018,23.477-25.512,35.167c-9.256-12.285-18.814-24.138-27.326-36.703
		c-3.232-4.775-7.416-13.257-5.41-16.525c13.59-22.176-3.113-37.407-11.697-60.135c-0.408,8.756-1.115,12.258-0.643,15.593
		c6.205,43.736,15.086,87.264,18.312,131.209c4.75,64.649,5.688,129.583,7.516,194.419c0.121,4.305-6.65,12.786-9.059,12.383
		c-5.791-0.963-13.35-4.872-15.705-9.759c-3.582-7.431-3.387-16.696-4.768-25.186c-7.584-46.68-14.883-93.412-23.078-139.98
		c-1.061-6.014-6.747-11.212-10.292-16.788c-1.657,0.514-3.316,1.027-4.974,1.542c-3.56,28.666-7.552,57.288-10.555,86.017
		c-3.09,29.546-4.376,59.316-8.451,88.712c-0.839,6.044-10.523,10.86-16.132,16.243c-3.089-5.775-8.565-11.423-8.883-17.348
		c-2.04-37.936-0.398-76.234-4.839-113.836c-6.129-51.89,0.609-101.975,10.608-152.478c4.549-22.977,4.575-46.85,6.65-70.316
		c-2.516-0.361-5.031-0.722-7.547-1.083c-2.996,15.06-11.248,31.494-7.752,44.856c5.182,19.812-3.263,31.862-12.829,45.353
		c-4.777,6.734-9.984,13.164-15.64,20.572c-10.939-14.509-22.046-29.24-33.154-43.973c-3.576,10.612-3.944,19.771-3.514,28.892
		c2.35,49.658,5.465,99.291,6.964,148.972c0.36,11.913-3.547,24.267-7.297,35.831c-1.431,4.413-7.826,10.089-12.125,10.235
		c-27.67,0.922-55.389,0.471-84.287,0.471c-1.696-8.489-4.982-16.302-4.486-23.867c3.12-47.528,6.133-95.103,11.235-142.44
		c2.039-18.914,1.461-33.604-14.975-46.848C10.22,223.183,6.226,209.829-0.001,199.249z M457.949,228.1
		c2.842-0.149,5.676-0.298,8.516-0.448c14.51-26.776,6-51.051-12.684-74.316C455.17,178.258,456.561,203.179,457.949,228.1z
		 M33.599,153.023c-16.146,25.321-14.968,43.304,0,59.379C33.599,193.188,33.599,173.105,33.599,153.023z M124.979,158.855
		c0,18.933,0,35.167,0,51.244C143.627,193.585,133.034,177.588,124.979,158.855z"/>
</g>
<path fill="#7E57C2" d="M140.19,507.396c-16.69,7.604-124.712,0-124.712,0l8.114-98.211L131.1,397.007L140.19,507.396"/>
<path fill="#7E57C2" d="M487.001,507.396c-30.791,7.604-148.667,0-148.667,0l8.443-113.593l139.233,2.499
	C486.011,396.302,514.045,500.717,487.001,507.396z"/>
</svg>
