<?xml version="1.0" encoding="utf-8"?>
<!-- Generator: Adobe Illustrator 16.0.0, SVG Export Plug-In . SVG Version: 6.00 Build 0)  -->
<!DOCTYPE svg PUBLIC "-//W3C//DTD SVG 1.1//EN" "http://www.w3.org/Graphics/SVG/1.1/DTD/svg11.dtd">
<svg version="1.1" id="Layer_1" xmlns="http://www.w3.org/2000/svg" xmlns:xlink="http://www.w3.org/1999/xlink" x="0px" y="0px"
	 width="500px" height="500px" viewBox="0 0 500 500" enable-background="new 0 0 500 500" xml:space="preserve">
<g>
	<g>
		<path fill="#5D5E5E" d="M-149.194,126.56c3.224,0,3.224-5,0-5C-152.418,121.56-152.418,126.56-149.194,126.56L-149.194,126.56z"/>
	</g>
</g>
<rect fill="#36393B" stroke="#36393B" stroke-miterlimit="10" width="500" height="500"/>
<rect x="54.538" y="56.151" fill="none" width="189.462" height="123.88"/>
<g enable-background="new    ">
	<path fill="#FFFFFF" d="M85.153,176.556c-15.823,0-24.939-10.664-24.939-24.768c0-25.8,0-45.407,0-71.035
		c0-14.963,10.664-24.596,24.939-24.596c14.792,0,25.112,9.633,25.112,24.596c0,25.284,0,45.407,0,71.035
		C110.265,166.235,101.837,176.556,85.153,176.556z M91.689,84.193c0-4.816-1.548-10.32-6.536-10.32
		c-5.16,0-6.536,5.504-6.536,10.32c0,22.188,0,41.451,0,63.811c0,4.816,0.172,10.32,6.536,10.32c6.02,0,6.536-5.504,6.536-10.32
		C91.689,125.645,91.689,106.381,91.689,84.193z"/>
	<path fill="#FFFFFF" d="M152.06,112.057c-8.943,0-9.632,0.172-9.632,2.924c0,17.028,0,39.216,0,58.479
		c0,3.096-0.516,3.096-8.771,3.096s-9.116,0-9.116-2.752c0-19.264,0-41.795,0-58.823c0-2.752-0.344-3.096-4.815-3.096
		c-1.892,0-2.064,0.172-2.064-7.396c0-7.053,0-8.772,1.72-8.772c2.924,0,4.472,0,4.988-1.548c0.172-1.548,0.172-3.268,0.172-9.46
		c0-9.804,2.236-16.512,8.944-22.531c3.268-2.924,10.319-6.021,18.919-6.021c1.72,0,1.376,1.893,1.376,8.944
		c0,7.912-0.344,8.771-1.72,8.771c-2.752,0-6.191,1.721-7.912,4.128c-1.376,2.064-1.72,6.364-1.72,10.148
		c0,1.892,0,4.472,0.344,6.02c0.344,1.72,4.816,1.548,9.46,1.548c1.892,0,2.064,1.376,2.064,8.944
		C154.296,112.917,153.78,112.057,152.06,112.057z"/>
	<path fill="#FFFFFF" d="M193.853,112.057c-8.944,0-9.632,0.172-9.632,2.924c0,17.028,0,39.216,0,58.479
		c0,3.096-0.516,3.096-8.772,3.096s-9.116,0-9.116-2.752c0-19.264,0-41.795,0-58.823c0-2.752-0.344-3.096-4.816-3.096
		c-1.892,0-2.063,0.172-2.063-7.396c0-7.053,0-8.772,1.72-8.772c2.924,0,4.472,0,4.988-1.548c0.172-1.548,0.172-3.268,0.172-9.46
		c0-9.804,2.236-16.512,8.943-22.531c3.268-2.924,10.32-6.021,18.92-6.021c1.72,0,1.376,1.893,1.376,8.944
		c0,7.912-0.344,8.771-1.72,8.771c-2.752,0-6.192,1.721-7.912,4.128c-1.376,2.064-1.72,6.364-1.72,10.148
		c0,1.892,0,4.472,0.344,6.02c0.344,1.72,4.816,1.548,9.46,1.548c1.892,0,2.064,1.376,2.064,8.944
		C196.089,112.917,195.573,112.057,193.853,112.057z"/>
	<path fill="#FFFFFF" d="M235.645,112.057c-8.943,0-9.632,0.172-9.632,2.924c0,17.028,0,39.216,0,58.479
		c0,3.096-0.516,3.096-8.771,3.096s-9.116,0-9.116-2.752c0-19.264,0-41.795,0-58.823c0-2.752-0.344-3.096-4.815-3.096
		c-1.892,0-2.064,0.172-2.064-7.396c0-7.053,0-8.772,1.72-8.772c2.924,0,4.472,0,4.988-1.548c0.172-1.548,0.172-3.268,0.172-9.46
		c0-9.804,2.236-16.512,8.944-22.531c3.268-2.924,10.319-6.021,18.919-6.021c1.72,0,1.376,1.893,1.376,8.944
		c0,7.912-0.344,8.771-1.72,8.771c-2.752,0-6.191,1.721-7.912,4.128c-1.376,2.064-1.72,6.364-1.72,10.148
		c0,1.892,0,4.472,0.344,6.02c0.344,1.72,4.816,1.548,9.46,1.548c1.892,0,2.064,1.376,2.064,8.944
		C237.881,112.917,237.365,112.057,235.645,112.057z"/>
</g>
<rect x="54.538" y="188.06" fill="none" width="265.673" height="123.879"/>
<g enable-background="new    ">
	<path fill="#FFA0AC" d="M113.188,306.573c-0.172,2.235-3.44,1.892-7.912,1.892c-2.236,0-7.052-0.172-7.396-1.892
		c-2.236-11.008-3.784-19.608-5.848-30.271c-0.172-0.688-0.172-1.893-1.204-1.893c-0.86,0-0.86,1.204-1.032,1.72
		c-2.064,10.32-3.612,18.92-5.848,30.271c-0.516,2.236-5.332,2.064-8.772,2.064c-2.236,0-8.256,0.344-8.428-1.892
		c-2.408-30.271-6.02-73.099-9.632-116.442c-0.172-1.376,4.644-2.064,8.084-2.064c5.16,0,9.459,0.173,9.632,1.893
		c1.72,31.991,3.268,52.115,4.815,81.011c0,0.516,0.172,1.72,1.032,1.72c1.032,0,1.204-1.204,1.204-1.892
		c1.548-16.685,2.408-28.208,3.612-43c0.172-1.548,1.72-2.063,4.816-2.063c3.44,0,5.332,0.344,5.504,2.063
		c1.376,16.168,1.892,26.66,3.612,43.688c0,0.517,0.172,1.72,1.032,1.72c1.032,0,1.204-1.203,1.204-1.892
		c1.376-30.443,3.096-57.103,4.3-81.526c0.172-1.721,3.956-1.721,7.912-1.721c4.644,0,9.116-0.344,8.944,1.893
		C120.584,216.963,115.769,275.098,113.188,306.573z"/>
	<path fill="#FFA0AC" d="M171.838,308.465c-7.567,0-9.804,0-9.804-1.376c0-15.479,0-33.712,0-53.319
		c0-4.815-1.548-10.319-6.536-10.319c-5.16,0-6.536,5.504-6.536,10.319c0,19.607,0,37.496,0,52.804c0,2.063-1.548,1.892-9.976,1.892
		c-6.708,0-8.428,0-8.428-1.72c0-34.228,0-75.507,0-117.302c0-1.721,2.752-1.549,8.084-1.549c5.504,0,9.116-0.172,9.116,1.549
		c0,7.739,0,31.819,0,37.667c0,2.752,0.688,3.612,1.892,2.408c2.408-2.236,7.224-3.784,9.46-3.784c11.696,0,21.5,7.912,21.5,24.768
		c0,15.308,0,38.871,0,56.243C180.61,308.465,178.203,308.465,171.838,308.465z"/>
	<path fill="#FFA0AC" d="M200.735,214.555c-6.364,0.688-11.18-6.021-10.492-12.384c0.516-5.504,2.064-10.664,10.492-10.32
		c5.676,0.345,9.632,4.988,9.976,10.836C211.227,208.879,211.915,213.179,200.735,214.555z M200.563,308.465
		c-8.6,0-8.772,0-8.772-2.752c0-23.907,0-52.459,0-77.055c0-2.752,0.688-2.924,8.772-2.924c8.943,0,9.632,0,9.632,3.096
		c0,20.124,0,49.879,0,76.539C210.195,308.465,209.851,308.465,200.563,308.465z"/>
	<path fill="#FFA0AC" d="M253.192,308.465c-21.5,0-28.036-9.632-28.036-24.596c0-12.899,0-29.928,0-38.871
		c0-1.893-2.064-2.408-5.16-2.408c-1.892,0-2.063-0.688-2.063-6.708c0-7.224,0.688-7.911,2.236-7.911
		c4.816,0,4.988-0.517,4.988-3.612c0-7.74,0,1.548,0-9.46c0-2.408,0.86-2.408,9.116-2.408c8.084,0,9.288,0,9.288,2.752
		c0,10.836,0,1.376,0,9.116c0,2.924,0.86,3.268,8.256,3.268c1.893,0,2.58,1.204,2.58,8.084c0,6.364,0,7.052-2.064,7.052
		c-2.58,0-7.224,0-8.083,0.86c-0.516,0.516-0.688,2.063-0.688,3.268c0,13.588,0,24.596,0,34.571c0,8.256,3.784,9.977,9.459,9.977
		c1.205,0,1.721,1.203,1.721,8.943C254.74,307.777,254.912,308.465,253.192,308.465z"/>
	<path fill="#FFA0AC" d="M286.217,308.465c-14.449,0-24.94-9.46-24.94-24.768c0-19.951,0-13.416,0-33.367
		c0-14.964,10.664-24.596,24.94-24.596c14.619,0,24.939,9.632,24.939,24.596c0,7.912,0,13.071,0,17.888
		c0,1.72,0.172,2.58-3.441,2.58c-9.459,0-18.23,0-26.143,0c-1.376,0-2.408,0.344-2.408,2.752c0,3.268,0.172,6.191,0.172,9.287
		c0.172,5.16,2.236,7.396,6.881,7.396c4.987,0,6.879-3.44,6.879-7.912c0-0.86,1.549-1.032,8.6-1.032c7.74,0,9.461,0,9.461,2.408
		C311.156,300.209,301.008,308.465,286.217,308.465z M292.752,251.361c0-3.955-1.721-7.739-6.708-7.739s-6.708,3.956-6.708,7.739
		c0,1.893,0,2.58,0,4.301c0,1.203,0.86,2.58,6.536,2.58c6.364,0,6.88-1.377,6.88-2.236
		C292.752,254.458,292.752,253.941,292.752,251.361z"/>
</g>
</svg>
